<?xml version="1.0" encoding="utf-8"?><svg xmlns="http://www.w3.org/2000/svg" xmlns:xlink="http://www.w3.org/1999/xlink"><symbol viewBox="0 0 551.13 551.13" id="chevron-down" xmlns="http://www.w3.org/2000/svg"><path d="M275.565 361.679L51.668 137.783H0l275.565 275.565L551.13 137.783h-51.668z"/></symbol><symbol viewBox="0 0 551.13 551.13" id="chevron-up" xmlns="http://www.w3.org/2000/svg"><path d="M275.565 189.451l223.897 223.897h51.668L275.565 137.783 0 413.348h51.668z"/></symbol><symbol viewBox="0 0 512.001 512.001" id="close" xmlns="http://www.w3.org/2000/svg"><path d="M284.286 256.002L506.143 34.144c7.811-7.811 7.811-20.475 0-28.285-7.811-7.81-20.475-7.811-28.285 0L256 227.717 34.143 5.859c-7.811-7.811-20.475-7.811-28.285 0-7.81 7.811-7.811 20.475 0 28.285l221.857 221.857L5.858 477.859c-7.811 7.811-7.811 20.475 0 28.285a19.938 19.938 0 0014.143 5.857 19.94 19.94 0 0014.143-5.857L256 284.287l221.857 221.857c3.905 3.905 9.024 5.857 14.143 5.857s10.237-1.952 14.143-5.857c7.811-7.811 7.811-20.475 0-28.285L284.286 256.002z"/></symbol><symbol viewBox="0 0 512 512" id="location" xmlns="http://www.w3.org/2000/svg"><path d="M256 0C156.748 0 76 80.748 76 180c0 33.534 9.289 66.26 26.869 94.652l142.885 230.257A15 15 0 00258.499 512h.119a14.997 14.997 0 0012.75-7.292L410.611 272.22C427.221 244.428 436 212.539 436 180 436 80.748 355.252 0 256 0zm128.866 256.818L258.272 468.186l-129.905-209.34C113.734 235.214 105.8 207.95 105.8 180c0-82.71 67.49-150.2 150.2-150.2S406.1 97.29 406.1 180c0 27.121-7.411 53.688-21.234 76.818z"/><path d="M256 90c-49.626 0-90 40.374-90 90 0 49.309 39.717 90 90 90 50.903 0 90-41.233 90-90 0-49.626-40.374-90-90-90zm0 150.2c-33.257 0-60.2-27.033-60.2-60.2 0-33.084 27.116-60.2 60.2-60.2s60.1 27.116 60.1 60.2c0 32.683-26.316 60.2-60.1 60.2z"/></symbol><symbol viewBox="0 0 511.999 511.999" id="medal" xmlns="http://www.w3.org/2000/svg"><path d="M321.356 63.796c-56.318-28.458-124.159-17.577-168.81 27.075-51.895 51.894-57.089 134.64-12.081 192.474a8.055 8.055 0 006.373 3.114 8.03 8.03 0 004.95-1.702 8.07 8.07 0 001.413-11.323c-40.019-51.422-35.394-125.002 10.757-171.153 39.71-39.712 100.038-49.39 150.122-24.083 3.976 2.012 8.83.414 10.84-3.563a8.067 8.067 0 00-3.564-10.839zm64.431 64.443a8.07 8.07 0 00-14.406 7.275c25.289 50.076 15.606 110.396-24.095 150.096-46.152 46.15-119.731 50.774-171.153 10.757a8.068 8.068 0 10-9.91 12.735c26.344 20.502 57.855 30.586 89.266 30.586 37.547 0 74.952-14.411 103.209-42.668 44.641-44.64 55.527-112.468 27.089-168.781zM364.94 97.508a147.944 147.944 0 00-12.88-12.88 8.066 8.066 0 00-11.388.703 8.065 8.065 0 00.7 11.388 132.458 132.458 0 0111.476 11.475 8.048 8.048 0 006.049 2.725 8.04 8.04 0 005.34-2.023 8.066 8.066 0 00.703-11.388z"/><path d="M446.066 208.41c5.38-8.827 5.38-19.791-.002-28.616l-10.615-17.407a11.358 11.358 0 01-1.521-7.67l3.164-20.103c1.613-10.245-2.596-20.398-10.982-26.499l-16.451-11.966a11.36 11.36 0 01-4.354-6.506l-4.791-19.799c-2.432-10.057-10.191-17.815-20.247-20.249l-19.8-4.792a11.355 11.355 0 01-6.506-4.354l-11.968-16.455c-6.1-8.386-16.254-12.597-26.496-10.983l-20.11 3.164a11.359 11.359 0 01-7.669-1.521l-17.41-10.618c-8.826-5.382-19.79-5.381-28.616 0l-17.408 10.615a11.358 11.358 0 01-7.67 1.521l-20.104-3.164c-10.242-1.612-20.397 2.597-26.497 10.983l-11.966 16.451a11.362 11.362 0 01-6.508 4.354l-19.799 4.791c-10.055 2.432-17.815 10.191-20.249 20.247l-4.792 19.8a11.35 11.35 0 01-4.354 6.506L85.89 108.108c-8.386 6.099-12.594 16.251-10.983 26.496l3.164 20.111a11.358 11.358 0 01-1.521 7.669l-10.617 17.411c-5.38 8.826-5.38 19.79.001 28.615l10.615 17.408a11.358 11.358 0 011.521 7.67l-3.164 20.104c-1.613 10.244 2.596 20.398 10.982 26.498l16.451 11.966a11.355 11.355 0 014.354 6.506l4.791 19.799c2.432 10.057 10.191 17.815 20.247 20.249l8.268 2.001-55.954 124.814a8.067 8.067 0 008.32 11.312l45.022-5.383 25.936 37.191a8.07 8.07 0 0013.981-1.314l57.145-127.479 7.241 4.415a27.444 27.444 0 0014.308 4.036c4.948 0 9.895-1.346 14.308-4.036l7.502-4.574 57.217 127.638a8.067 8.067 0 007.365 4.768 8.069 8.069 0 006.616-3.453l25.936-37.191 45.022 5.383a8.067 8.067 0 008.32-11.312l-55.983-124.883 7.957-1.925c10.055-2.432 17.815-10.191 20.249-20.247l4.792-19.8a11.355 11.355 0 014.354-6.506l16.455-11.968c8.386-6.099 12.594-16.251 10.983-26.496l-3.164-20.111a11.358 11.358 0 011.521-7.669l10.618-17.411zM168.408 487.627l-20.554-29.474a8.064 8.064 0 00-7.576-3.396l-35.679 4.266L155.578 345.3a11.284 11.284 0 012.457 2.455l11.968 16.455a27.734 27.734 0 003.808 4.242l-26.833 59.857a8.07 8.07 0 0014.724 6.601l26.738-59.644c2.631.361 5.34.355 8.059-.073l20.11-3.164a11.327 11.327 0 013.606.024l-51.807 115.574zm239.324-28.606l-35.68-4.264a8.064 8.064 0 00-7.576 3.396l-20.554 29.474-51.829-115.619a11.359 11.359 0 013.293.024l20.103 3.164c2.829.445 5.648.431 8.379.024l26.758 59.692a8.07 8.07 0 007.367 4.77 8.068 8.068 0 007.357-11.371l-26.935-60.085a27.771 27.771 0 003.571-4.013l11.966-16.451a11.327 11.327 0 012.716-2.645l51.064 113.904zm24.555-259.013l-10.617 17.411a27.52 27.52 0 00-3.684 18.578l3.164 20.11a11.3 11.3 0 01-4.534 10.938l-16.456 11.969a27.514 27.514 0 00-10.545 15.76l-4.792 19.8a11.303 11.303 0 01-8.359 8.359l-19.8 4.791a27.512 27.512 0 00-15.762 10.546l-11.966 16.451a11.293 11.293 0 01-10.939 4.533l-20.104-3.164a27.517 27.517 0 00-18.581 3.684l-17.407 10.615a11.307 11.307 0 01-11.812 0l-17.411-10.616a27.51 27.51 0 00-18.579-3.684l-20.111 3.164a11.297 11.297 0 01-10.938-4.534l-11.969-16.455a27.514 27.514 0 00-15.76-10.545l-19.8-4.792a11.303 11.303 0 01-8.359-8.359l-4.791-19.799a27.51 27.51 0 00-10.546-15.763l-16.45-11.967a11.297 11.297 0 01-4.533-10.939l3.164-20.104a27.515 27.515 0 00-3.684-18.58l-10.615-17.409a11.303 11.303 0 010-11.812l10.617-17.411a27.515 27.515 0 003.684-18.578l-3.164-20.11a11.3 11.3 0 014.534-10.938l16.456-11.969a27.514 27.514 0 0010.545-15.76l4.792-19.8a11.303 11.303 0 018.359-8.359l19.8-4.791a27.507 27.507 0 0015.761-10.546l11.966-16.451A11.294 11.294 0 01194 28.948l20.104 3.164a27.504 27.504 0 0018.581-3.684l17.407-10.615a11.307 11.307 0 0111.812 0l17.411 10.616a27.502 27.502 0 0018.579 3.685l20.111-3.164a11.305 11.305 0 0110.938 4.534l11.969 16.455a27.514 27.514 0 0015.76 10.545l19.8 4.792a11.303 11.303 0 018.359 8.359l4.791 19.799a27.51 27.51 0 0010.546 15.763l16.451 11.966a11.297 11.297 0 014.533 10.939l-3.164 20.104a27.515 27.515 0 003.684 18.58l10.615 17.409a11.3 11.3 0 010 11.813z"/><path d="M350.416 168.997c-1.778-5.474-6.433-9.296-12.149-9.974l-48.551-5.757-20.478-44.395c-2.411-5.226-7.484-8.473-13.24-8.473-5.755 0-10.829 3.247-13.24 8.473l-20.478 44.396-48.551 5.757c-5.716.678-10.372 4.5-12.149 9.974-1.778 5.471-.258 11.3 3.966 15.207l35.895 33.195-9.528 47.954c-1.121 5.646 1.075 11.254 5.732 14.636 2.569 1.866 5.55 2.811 8.55 2.811 2.439 0 4.889-.624 7.14-1.884l42.662-23.879 42.662 23.879c5.023 2.812 11.034 2.457 15.691-.926s6.853-8.992 5.731-14.637l-9.528-47.953 35.895-33.195c4.226-3.907 5.746-9.735 3.968-15.209zm-54.134 39.623a8.07 8.07 0 00-2.436 7.496l9.75 49.071-43.658-24.437a8.065 8.065 0 00-7.882 0l-43.658 24.437 9.75-49.071a8.063 8.063 0 00-2.436-7.496l-36.732-33.97 49.686-5.891a8.071 8.071 0 006.377-4.632l20.955-45.431 20.955 45.431a8.07 8.07 0 006.377 4.632l49.684 5.891-36.732 33.97z"/></symbol><symbol viewBox="0 0 512 512" id="phone-call" xmlns="http://www.w3.org/2000/svg"><path d="M436.992 74.953c-99.989-99.959-262.08-99.935-362.039.055s-99.935 262.08.055 362.039 262.08 99.935 362.039-.055a256 256 0 00-.055-362.039zm-49.289 281.652l-.034.034v-.085l-12.971 12.885a68.267 68.267 0 01-64.427 18.432 226.834 226.834 0 01-65.877-29.525 304.371 304.371 0 01-51.968-41.899 306.71 306.71 0 01-38.827-47.104 238.907 238.907 0 01-29.184-59.051 68.265 68.265 0 0117.067-69.717l15.189-15.189c4.223-4.242 11.085-4.257 15.326-.034l.034.034 47.957 47.957c4.242 4.223 4.257 11.085.034 15.326l-.034.034-28.16 28.16c-8.08 7.992-9.096 20.692-2.389 29.867a329.334 329.334 0 0033.707 39.339 327.314 327.314 0 0044.373 37.291c9.167 6.394 21.595 5.316 29.525-2.56l27.221-27.648c4.223-4.242 11.085-4.257 15.326-.034l.034.034 48.043 48.128c4.243 4.222 4.258 11.083.035 15.325z"/></symbol><symbol viewBox="0 0 476.213 476.213" id="right-arrow" xmlns="http://www.w3.org/2000/svg"><path d="M345.606 107.5l-21.212 21.213 94.393 94.394H0v30h418.787L324.394 347.5l21.212 21.213 130.607-130.607z"/></symbol><symbol viewBox="0 0 485 485" id="right-chevron" xmlns="http://www.w3.org/2000/svg"><path d="M413.974 71.026C368.171 25.225 307.274 0 242.5 0S116.829 25.225 71.026 71.026C25.225 116.829 0 177.726 0 242.5s25.225 125.671 71.026 171.474C116.829 459.775 177.726 485 242.5 485s125.671-25.225 171.474-71.026C459.775 368.171 485 307.274 485 242.5s-25.225-125.671-71.026-171.474zM242.5 455C125.327 455 30 359.673 30 242.5S125.327 30 242.5 30 455 125.327 455 242.5 359.673 455 242.5 455z"/><path d="M193.228 135.589L299.791 242.5 193.228 349.411l21.248 21.178L342.148 242.5 214.476 114.411z"/></symbol><symbol viewBox="-29 0 487 487.719" id="save-money" xmlns="http://www.w3.org/2000/svg"><path d="M220.867 266.176a7.616 7.616 0 00-2.742-.094c-9.16-1.066-16.07-8.816-16.086-18.035a8 8 0 00-16 0c.024 15.394 10.32 28.879 25.164 32.953v8a8 8 0 0016 0v-7.516c17.133-3.586 28.777-19.543 26.977-36.953-1.805-17.41-16.473-30.64-33.977-30.644-10.031 0-18.164-8.133-18.164-18.164s8.133-18.164 18.164-18.164 18.164 8.132 18.164 18.164a8 8 0 0016 0c-.023-16.164-11.347-30.106-27.164-33.442V155a8 8 0 00-16 0v7.77c-16.508 4.507-27.133 20.535-24.86 37.496s16.747 29.62 33.86 29.617c9.899 0 17.973 7.926 18.152 17.82.184 9.895-7.597 18.113-17.488 18.473zm0 0"/><path d="M104.195 222.5c0 64.07 51.938 116.008 116.008 116.008S336.211 286.57 336.211 222.5s-51.938-116.008-116.008-116.008c-64.039.07-115.933 51.969-116.008 116.008zm116.008-100.008c55.234 0 100.008 44.774 100.008 100.008s-44.774 100.008-100.008 100.008S120.195 277.734 120.195 222.5c.063-55.207 44.801-99.945 100.008-100.008zm0 0"/><path d="M375.648 358.23l-62.668 29.61a51.043 51.043 0 00-43.515-26.852l-57.852-1.59a61.1 61.1 0 01-26.293-6.789l-5.886-3.05a103.833 103.833 0 00-96.176.101l.367-13.336a8 8 0 00-7.777-8.219L12.41 326.36a7.997 7.997 0 00-8.215 7.778L.363 473.347a8 8 0 007.778 8.22l63.437 1.746h.219a8 8 0 008-7.782l.183-6.66 16.48-8.824a28.269 28.269 0 0121.099-2.309l98.414 27.621c.172.051.343.09.52.13a105.348 105.348 0 0021.628 2.23 106.739 106.739 0 0044.59-9.73 7.43 7.43 0 00.992-.548l142.692-92.296a8.004 8.004 0 002.62-10.657c-10.593-18.797-34.09-25.957-53.367-16.258zM16.578 465.793l3.39-123.219 47.442 1.305-3.39 123.223zm258.926-2.094a90.704 90.704 0 01-55.469 6.192l-98.148-27.551a44.236 44.236 0 00-32.977 3.605l-8.422 4.512 2.254-81.926a87.938 87.938 0 0189.336-4.765l5.887 3.05a77.267 77.267 0 0033.21 8.579l57.856 1.59c16.25.468 30.051 12.038 33.348 27.96l-86.176-2.379a8.007 8.007 0 00-8.219 7.778 8.003 8.003 0 007.778 8.219l95.101 2.617h.223a8 8 0 007.992-7.782 50.772 50.772 0 00-.773-10.378l64.277-30.372c.063-.027.125-.058.188-.09a24.443 24.443 0 0127.64 3.872zM228.203 84V8a8 8 0 00-16 0v76a8 8 0 0016 0zm60 0V48a8 8 0 00-16 0v36a8 8 0 0016 0zm-120 0V48a8 8 0 00-16 0v36a8 8 0 0016 0zm0 0"/></symbol><symbol viewBox="0 0 512 512" id="shipped" xmlns="http://www.w3.org/2000/svg"><path d="M476.158 231.363l-13.259-53.035c3.625-.77 6.345-3.986 6.345-7.839v-8.551c0-18.566-15.105-33.67-33.67-33.67h-60.392V110.63c0-9.136-7.432-16.568-16.568-16.568H50.772c-9.136 0-16.568 7.432-16.568 16.568V256a8.017 8.017 0 0016.034 0V110.63c0-.295.239-.534.534-.534h307.841c.295 0 .534.239.534.534v145.372a8.017 8.017 0 0016.034 0v-9.088h94.569l.021.002.022-.001c11.637.008 21.518 7.646 24.912 18.171h-24.928a8.017 8.017 0 00-8.017 8.017v17.102c0 13.851 11.268 25.119 25.119 25.119h9.086v35.273h-20.962c-6.886-19.883-25.787-34.205-47.982-34.205s-41.097 14.322-47.982 34.205h-3.86v-60.393a8.017 8.017 0 00-16.034 0v60.391H192.817c-6.886-19.883-25.787-34.205-47.982-34.205s-41.097 14.322-47.982 34.205H50.772a.534.534 0 01-.534-.534v-17.637h34.739a8.017 8.017 0 000-16.034H8.017a8.017 8.017 0 000 16.034h26.188v17.637c0 9.136 7.432 16.568 16.568 16.568h43.304c-.002.178-.014.355-.014.534 0 27.996 22.777 50.772 50.772 50.772s50.772-22.776 50.772-50.772c0-.18-.012-.356-.014-.534h180.67c-.002.178-.014.355-.014.534 0 27.996 22.777 50.772 50.772 50.772 27.995 0 50.772-22.776 50.772-50.772 0-.18-.012-.356-.014-.534h26.203a8.017 8.017 0 008.017-8.017v-85.511c.001-21.112-15.576-38.653-35.841-41.738zm-100.976-87.062h60.392c9.725 0 17.637 7.912 17.637 17.637v.534h-78.029v-18.171zm0 86.58v-52.376h71.235l13.094 52.376h-84.329zM144.835 401.904c-19.155 0-34.739-15.583-34.739-34.739s15.584-34.739 34.739-34.739c19.155 0 34.739 15.583 34.739 34.739s-15.584 34.739-34.739 34.739zm282.188 0c-19.155 0-34.739-15.583-34.739-34.739s15.584-34.739 34.739-34.739c19.155 0 34.739 15.583 34.739 34.739s-15.584 34.739-34.739 34.739zm68.944-102.614h-9.086c-5.01 0-9.086-4.076-9.086-9.086v-9.086h18.171v18.172z"/><path d="M144.835 350.597c-9.136 0-16.568 7.432-16.568 16.568 0 9.136 7.432 16.568 16.568 16.568 9.136 0 16.568-7.432 16.568-16.568 0-9.136-7.432-16.568-16.568-16.568zm282.188 0c-9.136 0-16.568 7.432-16.568 16.568 0 9.136 7.432 16.568 16.568 16.568 9.136 0 16.568-7.432 16.568-16.568 0-9.136-7.432-16.568-16.568-16.568zm-94.063-34.204H213.244a8.017 8.017 0 000 16.034H332.96a8.017 8.017 0 000-16.034zm-205.227-34.205H25.119a8.017 8.017 0 000 16.034h102.614a8.017 8.017 0 000-16.034zM278.771 173.37a8.017 8.017 0 00-11.337.001l-71.292 71.291-37.087-37.087a8.016 8.016 0 00-11.337 0 8.016 8.016 0 000 11.337l42.756 42.756c1.565 1.566 3.617 2.348 5.668 2.348s4.104-.782 5.668-2.348l76.96-76.96a8.018 8.018 0 00.001-11.338z"/></symbol></svg>